# xmcd CD database file
#
# Track frame offsets:
#	150
#	15915
#	35627
#	49077
#	64772
#	78990
#	94237
#	108132
#	123382
#	140167
#	153595
#	169152
#	187130
#	202442
#	221070
#	234367
#	250002
#	260742
#	275855
#	290402
#
# Disc length: 4082 seconds
#
# Revision: 1
# Processed by: cddbd v1.5.2PL0 Copyright (c) Steve Scherf et al.
# Submitted via: CDex 1.70beta2
#
DISCID=350ff014
DTITLE=Jamppa Tuominen - Elämäni parhainta aikaa cd2
DYEAR=2005
DGENRE=Finnish POP
TTITLE0=Luoksein - Itke En Kuitenkaan
TTITLE1=Ilman Minua
TTITLE2=Jos Ystävään Luottaa Voit
TTITLE3=Yönkukka 
TTITLE4=Pohjoisen Laulu
TTITLE5=Kaiken Teen Minkä Voin
TTITLE6=Minä Untasi Valvon
TTITLE7=Silloin Tunnen Kaiken Kauniin
TTITLE8=Pois Pohjoiseen
TTITLE9=Viimeinen Heinäkuu
TTITLE10=Ei Kuule Kukaan
TTITLE11=Kerro Kuiskaten Tunteesi
TTITLE12=Yhdessä Kaikki Ois Toisin
TTITLE13=Sua Minä Odotan
TTITLE14=Hän Rakkaani On
TTITLE15=Pian Voittaa Yö
TTITLE16=Me Lupasimme
TTITLE17=Kesätuuli
TTITLE18=Tähdenlento
TTITLE19=Ruusut Unessa Kukkivat
EXTD=YEAR: 2005
EXTT0=
EXTT1=
EXTT2=
EXTT3=
EXTT4=
EXTT5=
EXTT6=
EXTT7=
EXTT8=
EXTT9=
EXTT10=
EXTT11=
EXTT12=
EXTT13=
EXTT14=
EXTT15=
EXTT16=
EXTT17=
EXTT18=
EXTT19=
PLAYORDER=
